<svg width="100" height="100" viewBox="0 0 100 100" fill="none" xmlns="http://www.w3.org/2000/svg">
  <!-- Logo mark only - for favicons and small spaces -->
  <g transform="translate(50, 50)">
    <!-- Left hand -->
    <path d="M-35,-10 Q-40,-5 -40,0 Q-40,10 -30,15 L-20,10 Q-25,5 -25,0 Q-25,-5 -30,-8 Z" 
          fill="#6B9B8A" stroke="#6B9B8A" stroke-width="2"/>
    
    <!-- Right hand -->
    <path d="M35,-10 Q40,-5 40,0 Q40,10 30,15 L20,10 Q25,5 25,0 Q25,-5 30,-8 Z" 
          fill="#6B9B8A" stroke="#6B9B8A" stroke-width="2"/>
    
    <!-- Heart in center -->
    <path d="M0,-15 C-3,-20 -10,-20 -12,-15 C-14,-10 -14,-5 -10,0 L0,8 L10,0 C14,-5 14,-10 12,-15 C10,-20 3,-20 0,-15 Z" 
          fill="#E8A87C"/>
    
    <!-- Circle outline -->
    <circle cx="0" cy="0" r="45" stroke="#6B9B8A" stroke-width="3" fill="none"/>
    
    <!-- Small accent dots -->
    <circle cx="-32" cy="-32" r="3" fill="#E8A87C"/>
    <circle cx="32" cy="-32" r="3" fill="#E8A87C"/>
    <circle cx="0" cy="-42" r="3" fill="#7BA3B0"/>
  </g>
</svg>
